<svg xmlns="http://www.w3.org/2000/svg" xmlns:xlink="http://www.w3.org/1999/xlink">
  <symbol id="down_arrow" viewBox="0 0 512.04 512.04">
    <title>DownArrow</title>
    <path d="M508.933,146.807l-42.347-42.347c-4.267-4.053-10.88-4.053-15.147,0L256.027,300.193L60.507,104.46
			c-4.267-4.053-10.88-4.053-15.147,0L3.12,146.807c-4.16,4.16-4.16,10.88,0,15.04L248.453,407.5c4.16,4.16,10.88,4.16,15.04,0
			l245.333-245.653C513.093,157.687,513.093,150.967,508.933,146.807z M256.027,384.887L25.733,154.38l27.2-27.307l195.52,195.733
			c4.267,4.053,10.88,4.053,15.147,0l195.52-195.733l27.2,27.307L256.027,384.887z"/>
  </symbol>

  <symbol id="edit" viewBox="0 0 24 24" aria-labeledby="title">
    <title>Edit</title>
    <path d="M3 17.25V21h3.75L17.81 9.94l-3.75-3.75L3 17.25zM20.71 7.04c.39-.39.39-1.02 0-1.41l-2.34-2.34c-.39-.39-1.02-.39-1.41 0l-1.83 1.83 3.75 3.75 1.83-1.83z"/>
    <path d="M0 0h24v24H0z" fill="none"/>
  </symbol>

  <symbol id="reply" viewBox="0 0 24 24" aria-labeledby="title">
    <title>Reply</title>
    <path d="M12 3c5.514 0 10 3.213 10 7.162 0 4-3.032 7.411-7.873 9.321l.423-2.179-2.444.019c-5.661.025-10.106-3.237-10.106-7.161 0-3.949 4.486-7.162 10-7.162zm0-2c-6.627 0-12 4.102-12 9.162 0 5.249 5.684 9.236 12.121 9.161-.391 2.015-2.765 3.275-4.545 3.677 10.109-.89 16.424-6.489 16.424-12.838 0-5.06-5.373-9.162-12-9.162z"/>
  </symbol>

  <symbol id="report" viewBox="0 0 24 24" aria-labeledby="title">
    <title>Report</title>
    <path d="M12 2c5.514 0 10 4.486 10 10s-4.486 10-10 10-10-4.486-10-10 4.486-10 10-10zm0-2c-6.627 0-12 5.373-12 12s5.373 12 12 12 12-5.373 12-12-5.373-12-12-12zm-1.31 7.526c-.099-.807.528-1.526 1.348-1.526.771 0 1.377.676 1.28 1.451l-.757 6.053c-.035.283-.276.496-.561.496s-.526-.213-.562-.496l-.748-5.978zm1.31 10.724c-.69 0-1.25-.56-1.25-1.25s.56-1.25 1.25-1.25 1.25.56 1.25 1.25-.56 1.25-1.25 1.25z"/>
  </symbol>
</svg>
