<svg xmlns="http://www.w3.org/2000/svg" xmlns:xlink="http://www.w3.org/1999/xlink">
  <symbol id="down_arrow" viewBox="0 0 512.04 512.04">
    <title>DownArrow</title>
    <path d="M508.933,146.807l-42.347-42.347c-4.267-4.053-10.88-4.053-15.147,0L256.027,300.193L60.507,104.46
			c-4.267-4.053-10.88-4.053-15.147,0L3.12,146.807c-4.16,4.16-4.16,10.88,0,15.04L248.453,407.5c4.16,4.16,10.88,4.16,15.04,0
			l245.333-245.653C513.093,157.687,513.093,150.967,508.933,146.807z M256.027,384.887L25.733,154.38l27.2-27.307l195.52,195.733
			c4.267,4.053,10.88,4.053,15.147,0l195.52-195.733l27.2,27.307L256.027,384.887z"/>
  </symbol>

  <symbol id="edit" viewBox="0 0 24 24" aria-labeledby="title">
    <title>Edit</title>
    <path d="M3 17.25V21h3.75L17.81 9.94l-3.75-3.75L3 17.25zM20.71 7.04c.39-.39.39-1.02 0-1.41l-2.34-2.34c-.39-.39-1.02-.39-1.41 0l-1.83 1.83 3.75 3.75 1.83-1.83z"/>
    <path d="M0 0h24v24H0z" fill="none"/>
  </symbol>

  <symbol id="reply" viewBox="0 0 24 24" aria-labeledby="title">
    <title>Reply</title>
    <path d="M12 3c5.514 0 10 3.213 10 7.162 0 4-3.032 7.411-7.873 9.321l.423-2.179-2.444.019c-5.661.025-10.106-3.237-10.106-7.161 0-3.949 4.486-7.162 10-7.162zm0-2c-6.627 0-12 4.102-12 9.162 0 5.249 5.684 9.236 12.121 9.161-.391 2.015-2.765 3.275-4.545 3.677 10.109-.89 16.424-6.489 16.424-12.838 0-5.06-5.373-9.162-12-9.162z"/>
  </symbol>

  <symbol id="report" viewBox="0 0 24 24" aria-labeledby="title">
    <title>Report</title>
    <path d="M12 2c5.514 0 10 4.486 10 10s-4.486 10-10 10-10-4.486-10-10 4.486-10 10-10zm0-2c-6.627 0-12 5.373-12 12s5.373 12 12 12 12-5.373 12-12-5.373-12-12-12zm-1.31 7.526c-.099-.807.528-1.526 1.348-1.526.771 0 1.377.676 1.28 1.451l-.757 6.053c-.035.283-.276.496-.561.496s-.526-.213-.562-.496l-.748-5.978zm1.31 10.724c-.69 0-1.25-.56-1.25-1.25s.56-1.25 1.25-1.25 1.25.56 1.25 1.25-.56 1.25-1.25 1.25z"/>
  </symbol>

  <symbol id="downvote" viewBox="0 0 24 24" aria-labeledby="title">
    <title>DownVote</title>
    <path d="M19.406 14.442c1.426-.06 2.594-.858 2.594-2.506 0-1-.986-6.373-1.486-8.25-.714-2.689-2.471-3.686-5.009-3.686-2.283 0-4.079.617-5.336 1.158-2.585 1.113-4.665 1.842-8.169 1.842v9.928c3.086.401 6.43.956 8.4 7.744.483 1.66.972 3.328 2.833 3.328 3.448 0 3.005-5.531 2.196-8.814 1.107-.466 2.767-.692 3.977-.744zm-.207-1.992c-2.749.154-5.06 1.013-6.12 1.556.431 1.747.921 3.462.921 5.533 0 2.505-.781 3.666-1.679.574-1.993-6.859-5.057-8.364-8.321-9.113v-6c2.521-.072 4.72-1.041 6.959-2.005 1.731-.745 4.849-1.495 6.416-.614 1.295.836 1.114 1.734.292 1.661l-.771-.032c-.815-.094-.92 1.068-.109 1.141 0 0 1.321.062 1.745.115.976.123 1.028 1.607-.04 1.551-.457-.024-1.143-.041-1.143-.041-.797-.031-.875 1.078-.141 1.172 0 0 .714.005 1.761.099s1.078 1.609-.004 1.563c-.868-.037-1.069-.027-1.069-.027-.75.005-.874 1.028-.141 1.115l1.394.167c1.075.13 1.105 1.526.05 1.585z"/>
  </symbol>
  
  <symbol id="filled-downvote" viewBox="0 0 24 24" aria-labeledby="title">
    <title>FilledDownVote</title>
    <path fill='#dc3545' d="M19.396 3.292c-.811.062-.734.812.031.953 1.268.234 1.826.914 1.826 1.543 0 .529-.396 1.022-1.098 1.181-.837.189-.664.757.031.812 1.133.09 1.688.764 1.688 1.41 0 .565-.424 1.108-1.26 1.22-.857.115-.578.734.031.922.521.16 1.354.5 1.354 1.51 0 .672-.5 1.562-2.271 1.49-1.228-.05-3.666.198-4.979.885.907 3.657.689 8.782-1.687 8.782-1.594 0-1.896-1.807-2.375-3.469-1.718-5.969-5.156-7.062-8.687-7.603v-9.928c6.688 0 8.5-3 13.505-3 3.198 0 4.852 1.735 4.852 2.666-.001.334-.273.572-.961.626z"/>
  </symbol>

  <symbol id="upvote" viewBox="0 0 24 24" aria-labeledby="title">
    <title>UpVote</title>
    <path d="M15.43 8.814c.808-3.283 1.252-8.814-2.197-8.814-1.861 0-2.35 1.668-2.833 3.329-1.971 6.788-5.314 7.342-8.4 7.743v9.928c3.503 0 5.584.729 8.169 1.842 1.257.541 3.053 1.158 5.336 1.158 2.538 0 4.295-.997 5.009-3.686.5-1.877 1.486-7.25 1.486-8.25 0-1.649-1.168-2.446-2.594-2.507-1.21-.051-2.87-.277-3.976-.743zm3.718 4.321l-1.394.167s-.609 1.109.141 1.115c0 0 .201.01 1.069-.027 1.082-.046 1.051 1.469.004 1.563l-1.761.099c-.734.094-.656 1.203.141 1.172 0 0 .686-.017 1.143-.041 1.068-.056 1.016 1.429.04 1.551-.424.053-1.745.115-1.745.115-.811.072-.706 1.235.109 1.141l.771-.031c.822-.074 1.003.825-.292 1.661-1.567.881-4.685.131-6.416-.614-2.238-.965-4.437-1.934-6.958-2.006v-6c3.263-.749 6.329-2.254 8.321-9.113.898-3.092 1.679-1.931 1.679.574 0 2.071-.49 3.786-.921 5.533 1.061.543 3.371 1.402 6.12 1.556 1.055.059 1.025 1.455-.051 1.585z"/>
  </symbol>

  <symbol id="filled-upvote" viewBox="0 0 24 24" aria-labeledby="title">
    <title>FilledUpVote</title>
    <path fill="#008000" d="M19.396 20.708c-.81-.062-.733-.812.031-.953 1.269-.234 1.827-.914 1.827-1.543 0-.529-.396-1.022-1.098-1.181-.837-.189-.664-.757.031-.812 1.132-.09 1.688-.764 1.688-1.41 0-.565-.425-1.108-1.261-1.22-.857-.115-.578-.734.031-.922.521-.16 1.354-.5 1.354-1.51 0-.672-.5-1.562-2.271-1.49-1.228.05-3.667-.198-4.979-.885.907-3.657.689-8.782-1.687-8.782-1.594 0-1.896 1.807-2.375 3.469-1.718 5.969-5.156 7.062-8.687 7.603v9.928c6.688 0 8.5 3 13.505 3 3.199 0 4.852-1.735 4.852-2.666-.001-.334-.273-.572-.961-.626z"/>
  </symbol>

  <symbol id="delete" viewBox="0 0 24 24" aria-labeledby="title">
    <title>Delete</title>
    <path fill='#dc3545' d="M24 20.188l-8.315-8.209 8.2-8.282-3.697-3.697-8.212 8.318-8.31-8.203-3.666 3.666 8.321 8.24-8.206 8.313 3.666 3.666 8.237-8.318 8.285 8.203z"/>
  </symbol>
</svg>
